<?xml version="1.0" encoding="utf-8"?>
<!-- Generator: Adobe Illustrator 17.1.0, SVG Export Plug-In . SVG Version: 6.00 Build 0)  -->
<!DOCTYPE svg PUBLIC "-//W3C//DTD SVG 1.1//EN" "http://www.w3.org/Graphics/SVG/1.1/DTD/svg11.dtd">
<svg version="1.1" id="Layer_1" xmlns="http://www.w3.org/2000/svg" xmlns:xlink="http://www.w3.org/1999/xlink" x="0px" y="0px"
	 width="158px" height="61px" viewBox="0 0 158 61" enable-background="new 0 0 158 61" xml:space="preserve">
<g>
	<path fill="#FFFFFF" d="M38.2,7.8c-0.2,0-0.3-0.1-0.4-0.2c-1.2-1.2-3.1-1.2-4.2,0c-0.2,0.2-0.6,0.2-0.9,0c-0.2-0.2-0.2-0.6,0-0.9
		c0.8-0.8,1.9-1.2,3-1.2c1.1,0,2.2,0.4,3,1.2c0.2,0.2,0.2,0.6,0,0.9C38.5,7.7,38.4,7.8,38.2,7.8z"/>
	<path fill="#FFFFFF" d="M54,30.6c2.5,0,4.4,0.6,5.7,1.9c1.3,1.3,2,2.9,2,5c0,2.1-0.7,3.8-2,5c-1.4,1.2-3.3,1.9-5.7,1.9h-5.4v8.1
		l2.6,0.2v1.4h-7.2v-1.4l2.6-0.2V32.3l-2.6-0.2v-1.4h2.6L54,30.6L54,30.6z M48.7,42.7H54c1.9,0,3.4-0.5,4.4-1.5s1.5-2.2,1.5-3.7
		c0-1.5-0.5-2.8-1.5-3.8c-1-1-2.4-1.5-4.4-1.5h-5.4L48.7,42.7L48.7,42.7z"/>
	<path fill="#FFFFFF" d="M76.6,54.1c-0.1-0.6-0.2-1.1-0.3-1.5c-0.1-0.4-0.1-0.9-0.1-1.3c-0.6,0.9-1.5,1.7-2.6,2.3
		c-1.1,0.6-2.3,0.9-3.6,0.9c-1.7,0-3-0.4-4-1.3c-0.9-0.9-1.4-2.1-1.4-3.6c0-1.6,0.7-2.9,2.1-3.8c1.4-0.9,3.3-1.4,5.6-1.4h3.9V42
		c0-1.2-0.4-2.2-1.2-2.9c-0.8-0.7-1.9-1.1-3.4-1.1c-1,0-1.9,0.1-2.7,0.4c-0.8,0.3-1.5,0.6-2,1.1l-0.2,2.3h-1.6l0-3.4
		c0.8-0.6,1.8-1.1,2.9-1.5c1.1-0.4,2.3-0.6,3.6-0.6c1.9,0,3.5,0.5,4.6,1.5c1.2,1,1.8,2.4,1.8,4.2v8.6c0,0.4,0,0.7,0,1
		c0,0.3,0.1,0.6,0.1,1l1.7,0.1v1.4L76.6,54.1L76.6,54.1z M70.2,52.7c1.4,0,2.6-0.3,3.7-1c1.1-0.6,1.8-1.5,2.3-2.5v-3.5h-3.9
		c-1.8,0-3.2,0.4-4.2,1.1c-1,0.7-1.6,1.6-1.6,2.8c0,0.9,0.3,1.7,1,2.3C68.2,52.5,69.1,52.7,70.2,52.7z"/>
	<path fill="#FFFFFF" d="M87,36.7l0.2,2.9v0.2c0.5-1.1,1.2-1.9,2-2.5c0.9-0.6,1.9-0.9,3-0.9c0.2,0,0.5,0,0.7,0.1
		c0.2,0,0.4,0.1,0.6,0.1l-0.3,1.8l-1.4-0.1c-1.2,0-2.2,0.3-3,1c-0.8,0.7-1.3,1.6-1.7,2.8v10.4l2.6,0.2v1.4h-7.2v-1.4l2.6-0.2V38.3
		l-2.6-0.2v-1.4h2.6H87z"/>
	<path fill="#FFFFFF" d="M108.3,42h-1.6l-0.2-2.5c-0.5-0.5-1.1-0.9-1.8-1.2c-0.7-0.3-1.6-0.4-2.5-0.4c-1.4,0-2.5,0.3-3.2,0.9
		c-0.7,0.6-1.1,1.3-1.1,2.1c0,0.8,0.3,1.5,0.9,2c0.6,0.5,1.8,1,3.6,1.4c2.1,0.5,3.6,1.1,4.7,1.9c1,0.8,1.5,1.9,1.5,3.3
		c0,1.5-0.6,2.6-1.8,3.5c-1.2,0.9-2.7,1.3-4.7,1.3c-1.3,0-2.5-0.2-3.5-0.5c-1.1-0.4-2-0.9-2.8-1.5v-3.5h1.6l0.3,2.5
		c0.5,0.5,1.2,0.9,2,1.1c0.8,0.2,1.6,0.3,2.5,0.3c1.4,0,2.5-0.3,3.3-0.9c0.8-0.6,1.2-1.4,1.2-2.2c0-0.8-0.3-1.5-1-2.1
		c-0.7-0.6-1.9-1.1-3.6-1.5c-2.1-0.5-3.6-1.1-4.6-1.8c-1-0.7-1.5-1.8-1.5-3.1c0-1.3,0.6-2.5,1.7-3.4c1.1-0.9,2.6-1.4,4.5-1.4
		c1.3,0,2.5,0.2,3.5,0.6c1.1,0.4,1.9,0.9,2.6,1.6L108.3,42z"/>
	<path fill="#FFFFFF" d="M111.3,52.7l2.6-0.2V38.3l-2.6-0.2v-1.4h4.3l0.2,3.1c0.6-1.1,1.3-1.9,2.3-2.5c1-0.6,2.1-0.9,3.4-0.9
		c1.9,0,3.3,0.6,4.3,1.7c1,1.2,1.5,3,1.5,5.4v9l2.6,0.2v1.4h-7.2v-1.4l2.6-0.2v-9c0-2-0.4-3.4-1.1-4.2c-0.7-0.8-1.8-1.2-3.2-1.2
		c-1.4,0-2.5,0.4-3.3,1.1c-0.9,0.7-1.5,1.7-1.8,2.8v10.6l2.6,0.2v1.4h-7.2L111.3,52.7L111.3,52.7z"/>
	<path fill="#FFFFFF" d="M132.8,52.7l2.6-0.2V38.3l-2.6-0.2v-1.4h4.6v15.8l2.6,0.2v1.4h-7.2V52.7z M137.3,31.6h-1.9v-2.7h1.9V31.6z"
		/>
	<path fill="#FFFFFF" d="M141.3,38.1v-1.4h4.2l0.2,2.7c0.6-1,1.3-1.7,2.3-2.2s2-0.8,3.2-0.8c2.1,0,3.7,0.8,4.9,2.5
		c1.2,1.7,1.8,3.9,1.8,6.7v0.3c0,2.6-0.6,4.7-1.8,6.3c-1.2,1.6-2.8,2.3-4.9,2.3c-1.2,0-2.3-0.2-3.2-0.7c-0.9-0.5-1.7-1.1-2.3-2v7.4
		l2.6,0.2v1.4h-7.2v-1.4l2.6-0.2V38.3L141.3,38.1z M156.1,45.5c0-2.2-0.4-4-1.3-5.4c-0.9-1.4-2.2-2.1-3.9-2.1
		c-1.3,0-2.4,0.3-3.2,0.9c-0.8,0.6-1.4,1.4-1.8,2.4v8.4c0.4,1,1.1,1.7,1.9,2.3c0.8,0.5,1.9,0.8,3.1,0.8c1.7,0,3-0.6,3.8-1.9
		c0.9-1.3,1.3-3,1.3-5.1L156.1,45.5L156.1,45.5z"/>
	<path fill="#FFFFFF" d="M54.7,10.3c-1.9-1.9-3.9-2.8-5.9-2.8c-1.8,0-3.6,0.8-5.3,2.3c0.1-0.5,0.2-1,0.2-1.6c0-2.1-0.9-4.1-2.8-5.9
		C39.3,0.8,37.6,0,35.8,0c-2.2,0-4.2,1.2-5.3,2.3c-1.4,1.4-2.2,3.2-2.2,5.2c0,2,0.8,3.8,2.2,5.2c0.8,0.8,1.1,1.5,1.1,2.4
		c0,1.6-1.3,3.3-2.8,5c-4-1.8-8.7-0.9-11.8,2.2l-0.1,0.1L0.3,50.9c-0.5,0.9-0.4,1.9,0.3,2.6c0.4,0.4,1,0.6,1.5,0.6
		c0.4,0,0.8-0.1,1.1-0.3l28.6-16.6l0.1,0l0.1-0.1c1.6-1.6,2.7-3.7,3-5.9c0.3-2.1,0-4.1-0.9-6c3.2-3.1,5.9-5.6,8.1-5.6
		c0.8,0,1.5,0.3,2.2,1c1.4,1.4,3.2,2.2,5.2,2.2c2,0,3.8-0.8,5.2-2.2c1.2-1.2,2-2.8,2.2-4.4C57.1,14.8,56.9,12.5,54.7,10.3z
		 M31.4,11.8c-2.4-2.4-2.4-6.2,0-8.6c0.9-0.9,2.6-1.9,4.4-1.9c1.5,0,2.9,0.6,4.2,1.9c3.2,3.2,3.2,6.8,0,10.1L31.2,22l-1.9,1.9
		L27.6,23c2.6-2.6,5.3-5.2,5.3-8C32.9,13.9,32.4,12.8,31.4,11.8z M31.1,36.3L2.6,52.8c-0.4,0.3-0.9,0.1-1.1-0.1
		c-0.2-0.2-0.4-0.7-0.1-1.1L17.9,23c2.6-2.6,6.5-3.4,9.9-2.1c-0.4,0.4-0.7,0.8-1.1,1.1c-0.2,0.2-0.4,0.4-0.6,0.6l-0.6,0.6l3.5,1.8
		l1.8,3.5l0.6-0.6c0.3-0.3,0.7-0.7,1-1c0.3-0.3,0.5-0.5,0.8-0.8C34.5,29.6,33.8,33.6,31.1,36.3z M53.8,19.8
		c-1.2,1.2-2.7,1.8-4.3,1.8c-1.6,0-3.2-0.6-4.3-1.8c-0.9-0.9-1.9-1.3-3-1.3c-1.5,0-3.1,0.7-5.1,2.4c-1.3,1-2.7,2.4-4.2,3.8
		c0,0-0.1,0.1-0.1,0.1c-0.5,0.5-0.9,0.9-1.4,1.4c-0.1,0.1-0.2,0.2-0.4,0.4l-0.9-1.7l5-5l5.6-5.6c0,0,0,0,0,0l2.9-2.9
		c1.6-1.6,3.3-2.4,5-2.4s3.4,0.8,5,2.4C57.3,14.6,55.3,18.3,53.8,19.8z"/>
	<path fill="#FFFFFF" d="M49.5,12.9c-0.2,0.2-0.2,0.6,0,0.9c1.2,1.2,1.2,3.1,0,4.2c-0.2,0.2-0.2,0.6,0,0.9C49.6,19,49.8,19,50,19
		c0.2,0,0.3-0.1,0.4-0.2c0.8-0.8,1.2-1.9,1.2-3c0-1.1-0.4-2.2-1.2-3C50.2,12.6,49.8,12.6,49.5,12.9z"/>
	<path fill="#FFFFFF" d="M28,34.7L10.5,44.9c-0.3,0.2-0.4,0.6-0.2,0.9c0.1,0.2,0.3,0.3,0.5,0.3c0.1,0,0.2,0,0.3-0.1l17.5-10.2
		c0.3-0.2,0.4-0.6,0.2-0.9C28.7,34.6,28.3,34.5,28,34.7z"/>
	<path fill="#FFFFFF" d="M16.7,38.9c0.1,0,0.2,0,0.3-0.1l10.2-5.8c0.3-0.2,0.4-0.6,0.2-0.9c-0.2-0.3-0.6-0.4-0.9-0.2l-10.2,5.8
		c-0.3,0.2-0.4,0.6-0.2,0.9C16.2,38.7,16.5,38.9,16.7,38.9z"/>
	<path fill="#FFFFFF" d="M51.9,11.8c-0.2,0.2-0.2,0.6,0,0.9c1.8,1.8,1.8,4.6,0,6.4c-0.2,0.2-0.2,0.6,0,0.9c0.1,0.1,0.3,0.2,0.4,0.2
		c0.2,0,0.3-0.1,0.4-0.2c2.2-2.2,2.2-5.9,0-8.1C52.5,11.5,52.1,11.5,51.9,11.8z"/>
	<path fill="#FFFFFF" d="M32,5.6c-0.2,0-0.3-0.1-0.4-0.2c-0.2-0.2-0.3-0.6,0-0.9c1.1-1.1,2.5-1.7,4-1.8c1.5,0,3,0.5,4.1,1.6
		c0.2,0.2,0.3,0.6,0,0.9c-0.2,0.2-0.6,0.3-0.9,0c-0.9-0.8-2-1.3-3.2-1.3c-1.2,0-2.3,0.5-3.2,1.4C32.4,5.6,32.2,5.6,32,5.6z"/>
</g>
</svg>
