<?xml version="1.0" encoding="utf-8"?>
<!-- Generator: Adobe Illustrator 17.1.0, SVG Export Plug-In . SVG Version: 6.00 Build 0)  -->
<!DOCTYPE svg PUBLIC "-//W3C//DTD SVG 1.1//EN" "http://www.w3.org/Graphics/SVG/1.1/DTD/svg11.dtd">
<svg version="1.1" id="Layer_1" xmlns="http://www.w3.org/2000/svg" xmlns:xlink="http://www.w3.org/1999/xlink" x="0px" y="0px"
	 viewBox="0 0 158 62" enable-background="new 0 0 158 62" xml:space="preserve">
<g>
	<g>
		<path fill="none" stroke="#FFFFFF" stroke-width="1.534" stroke-linecap="round" stroke-miterlimit="10" d="M29.752,25.185
			c1.735-1.735,8.244-8.244,10.847-10.847c3.471-3.471,3.471-7.376,0-10.847c-3.616-3.616-7.665-1.735-9.401,0
			c-2.603,2.603-2.603,6.797,0,9.401c3.471,3.471-0.723,7.231-4.339,10.847L29.752,25.185z"/>
		<path fill="none" stroke="#FFFFFF" stroke-width="1.534" stroke-linecap="round" stroke-miterlimit="10" d="M29.752,25.185
			c1.735-1.735,11.136-11.136,13.739-13.739c3.471-3.471,7.376-3.471,10.847,0c3.616,3.616,1.735,7.665,0,9.401
			c-2.603,2.603-6.797,2.603-9.401,0c-3.471-3.471-7.954,1.446-13.739,7.231L29.752,25.185z"/>
		<g>
			<path fill="#FFFFFF" d="M32.159,5.79c0,0,0.089-0.069,0.246-0.189c0.078-0.06,0.173-0.133,0.282-0.217
				c0.107-0.084,0.221-0.179,0.423-0.28c0.186-0.098,0.388-0.204,0.601-0.317c0.215-0.129,0.442-0.157,0.677-0.236
				c0.237-0.061,0.475-0.156,0.734-0.161c0.255-0.021,0.515-0.043,0.774-0.065c0.259,0.022,0.519,0.045,0.774,0.067
				c0.259,0.005,0.497,0.1,0.734,0.161c0.232,0.077,0.472,0.111,0.665,0.23c0.2,0.103,0.389,0.2,0.564,0.29
				c0.352,0.176,0.584,0.417,0.774,0.545c0.181,0.142,0.284,0.224,0.284,0.224c0.332,0.261,0.389,0.742,0.128,1.075
				s-0.742,0.389-1.075,0.128c-0.008-0.006-0.016-0.013-0.023-0.019L38.61,6.926c0,0-0.071-0.061-0.196-0.169
				c-0.135-0.092-0.277-0.302-0.535-0.424c-0.125-0.068-0.26-0.141-0.403-0.219c-0.135-0.097-0.314-0.113-0.48-0.176
				c-0.171-0.046-0.341-0.131-0.532-0.131c-0.187-0.02-0.376-0.041-0.566-0.061c-0.19,0.021-0.379,0.043-0.566,0.064
				c-0.19,0-0.36,0.084-0.532,0.13c-0.162,0.06-0.354,0.082-0.468,0.17c-0.13,0.068-0.253,0.133-0.366,0.192
				c-0.111,0.035-0.231,0.146-0.335,0.239c-0.104,0.09-0.194,0.169-0.269,0.233c-0.149,0.129-0.234,0.203-0.234,0.203
				c-0.32,0.278-0.805,0.243-1.082-0.077s-0.243-0.805,0.077-1.082C32.134,5.81,32.148,5.799,32.159,5.79z"/>
		</g>
		<path fill="none" stroke="#FFFFFF" stroke-width="1.534" stroke-linecap="round" stroke-miterlimit="10" d="M33.367,8.553
			c1.398-1.398,3.664-1.398,5.062,0"/>
		<g>
			<path fill="#FFFFFF" d="M52.401,12.769c0,0,0.069,0.089,0.189,0.246c0.06,0.078,0.133,0.173,0.217,0.282
				c0.084,0.107,0.179,0.221,0.28,0.423c0.098,0.186,0.204,0.388,0.317,0.601c0.129,0.215,0.157,0.442,0.236,0.677
				c0.061,0.237,0.156,0.475,0.161,0.734c0.021,0.255,0.043,0.515,0.065,0.775c-0.022,0.259-0.045,0.519-0.067,0.774
				c-0.005,0.259-0.1,0.497-0.161,0.734c-0.077,0.232-0.111,0.472-0.23,0.665c-0.103,0.2-0.2,0.389-0.29,0.564
				c-0.176,0.352-0.417,0.584-0.545,0.774c-0.142,0.181-0.224,0.284-0.224,0.284c-0.261,0.332-0.742,0.389-1.075,0.128
				s-0.389-0.742-0.128-1.075c0.006-0.008,0.013-0.016,0.019-0.023l0.099-0.115c0,0,0.061-0.071,0.169-0.196
				c0.092-0.135,0.302-0.277,0.424-0.535c0.068-0.125,0.141-0.26,0.219-0.403c0.097-0.135,0.113-0.314,0.176-0.48
				c0.046-0.171,0.131-0.341,0.131-0.532c0.02-0.187,0.041-0.376,0.061-0.566c-0.021-0.19-0.043-0.379-0.063-0.566
				c0-0.19-0.084-0.36-0.13-0.532c-0.06-0.162-0.082-0.354-0.17-0.468c-0.068-0.13-0.133-0.253-0.192-0.366
				c-0.035-0.111-0.146-0.231-0.239-0.335c-0.09-0.104-0.169-0.194-0.233-0.269c-0.129-0.149-0.203-0.234-0.203-0.234
				c-0.278-0.32-0.243-0.805,0.077-1.082c0.32-0.278,0.805-0.243,1.082,0.077C52.381,12.744,52.392,12.757,52.401,12.769z"/>
		</g>
		<path fill="none" stroke="#FFFFFF" stroke-width="1.534" stroke-linecap="round" stroke-miterlimit="10" d="M49.637,13.977
			c1.398,1.398,1.398,3.664,0,5.062"/>
		
			<line fill="none" stroke="#FFFFFF" stroke-width="1.534" stroke-linecap="round" stroke-miterlimit="10" x1="28.667" y1="35.67" x2="11.312" y2="45.794"/>
		
			<line fill="none" stroke="#FFFFFF" stroke-width="1.534" stroke-linecap="round" stroke-miterlimit="10" x1="27.221" y1="32.88" x2="17.097" y2="38.665"/>
		<path fill="none" stroke="#FFFFFF" stroke-width="1.534" stroke-linecap="round" stroke-miterlimit="10" d="M29.199,21.373
			c-3.696-1.834-8.3-1.212-11.379,1.867L1.419,51.533c-0.792,1.351,0.729,2.872,2.08,2.08l28.293-16.401
			c3.12-3.12,3.717-7.808,1.792-11.528"/>
	</g>
	<g>
		<path fill="#FFFFFF" d="M54.103,31.123c2.439,0,4.327,0.621,5.664,1.862c1.336,1.241,2.005,2.884,2.005,4.929
			c0,2.067-0.669,3.718-2.005,4.953c-1.337,1.236-3.226,1.854-5.664,1.854h-5.305v8.053l2.605,0.208v1.406h-7.111v-1.406
			l2.605-0.208V32.752l-2.605-0.208v-1.422h2.605H54.103z M48.798,43.091h5.305c1.917,0,3.358-0.487,4.322-1.462
			c0.964-0.975,1.446-2.202,1.446-3.683c0-1.491-0.479-2.729-1.438-3.715c-0.959-0.985-2.403-1.478-4.33-1.478h-5.305V43.091z"/>
		<path fill="#FFFFFF" d="M76.407,54.388c-0.128-0.586-0.219-1.092-0.272-1.518c-0.054-0.426-0.08-0.857-0.08-1.294
			c-0.639,0.906-1.492,1.657-2.557,2.253c-1.066,0.596-2.264,0.895-3.595,0.895c-1.694,0-3.004-0.436-3.931-1.31
			c-0.927-0.873-1.39-2.056-1.39-3.547c0-1.598,0.687-2.865,2.061-3.803c1.374-0.937,3.238-1.406,5.593-1.406h3.819v-2.285
			c0-1.235-0.397-2.205-1.19-2.908c-0.794-0.703-1.904-1.055-3.332-1.055c-0.959,0-1.836,0.131-2.629,0.391
			c-0.794,0.261-1.457,0.615-1.989,1.063l-0.16,2.317h-1.582l0.016-3.324c0.799-0.618,1.755-1.119,2.868-1.502
			c1.113-0.383,2.298-0.575,3.555-0.575c1.906,0,3.44,0.485,4.602,1.454c1.16,0.97,1.742,2.36,1.742,4.17v8.501
			c0,0.352,0.008,0.69,0.024,1.015c0.016,0.325,0.05,0.642,0.104,0.951l1.726,0.112v1.406H76.407z M70.111,53.03
			c1.384,0,2.605-0.32,3.659-0.959c1.055-0.639,1.816-1.465,2.285-2.477v-3.467h-3.851c-1.737,0-3.124,0.36-4.162,1.079
			c-1.039,0.719-1.558,1.627-1.558,2.724c0,0.927,0.322,1.675,0.967,2.245C68.095,52.745,68.982,53.03,70.111,53.03z"/>
		<path fill="#FFFFFF" d="M86.724,37.099l0.24,2.876v0.208c0.489-1.065,1.158-1.898,2.005-2.501
			c0.847-0.602,1.851-0.903,3.012-0.903c0.245,0,0.481,0.019,0.711,0.056c0.229,0.037,0.417,0.077,0.567,0.12l-0.256,1.79
			l-1.422-0.096c-1.204,0-2.192,0.339-2.964,1.015c-0.773,0.677-1.324,1.606-1.654,2.788v10.322l2.605,0.208v1.406h-7.111v-1.406
			l2.605-0.208V38.729l-2.605-0.208v-1.422h2.605H86.724z"/>
		<path fill="#FFFFFF" d="M107.795,42.436h-1.566l-0.224-2.445c-0.479-0.5-1.085-0.889-1.814-1.166
			c-0.73-0.277-1.569-0.415-2.517-0.415c-1.396,0-2.443,0.301-3.14,0.903c-0.698,0.602-1.047,1.308-1.047,2.117
			c0,0.799,0.301,1.46,0.903,1.981c0.601,0.522,1.803,0.98,3.603,1.374c2.055,0.458,3.595,1.084,4.618,1.878
			c1.023,0.794,1.534,1.873,1.534,3.236c0,1.438-0.583,2.602-1.75,3.491c-1.166,0.89-2.708,1.334-4.626,1.334
			c-1.278,0-2.443-0.179-3.491-0.535c-1.05-0.357-1.957-0.86-2.724-1.51v-3.483h1.55l0.272,2.461
			c0.511,0.511,1.158,0.882,1.941,1.111c0.783,0.229,1.6,0.344,2.453,0.344c1.384,0,2.477-0.304,3.276-0.911
			c0.799-0.607,1.198-1.342,1.198-2.205c0-0.809-0.334-1.518-0.999-2.125c-0.666-0.607-1.868-1.103-3.603-1.486
			c-2.056-0.447-3.582-1.041-4.578-1.782c-0.997-0.74-1.494-1.776-1.494-3.108c0-1.321,0.559-2.437,1.678-3.348
			c1.119-0.911,2.594-1.366,4.426-1.366c1.267,0,2.426,0.195,3.475,0.583c1.049,0.389,1.903,0.914,2.565,1.574L107.795,42.436z"/>
		<path fill="#FFFFFF" d="M110.834,52.982l2.605-0.208V38.729l-2.605-0.208v-1.422h4.298l0.176,3.02
			c0.553-1.065,1.302-1.888,2.245-2.469c0.943-0.58,2.058-0.871,3.348-0.871c1.875,0,3.302,0.573,4.282,1.718
			c0.98,1.145,1.47,2.932,1.47,5.361v8.916l2.605,0.208v1.406h-7.127v-1.406l2.605-0.208v-8.9c0-1.981-0.371-3.382-1.111-4.202
			c-0.741-0.82-1.793-1.23-3.156-1.23c-1.342,0-2.437,0.355-3.284,1.063c-0.847,0.709-1.457,1.649-1.83,2.82v10.45l2.605,0.208
			v1.406h-7.127V52.982z"/>
		<path fill="#FFFFFF" d="M132.035,52.982l2.605-0.208V38.729l-2.605-0.208v-1.422h4.506v15.675l2.605,0.208v1.406h-7.111V52.982z
			 M136.541,32.145h-1.901v-2.684h1.901V32.145z"/>
		<path fill="#FFFFFF" d="M140.505,38.521v-1.422h4.202l0.24,2.684c0.585-0.959,1.334-1.699,2.245-2.221
			c0.911-0.522,1.978-0.783,3.204-0.783c2.077,0,3.701,0.828,4.874,2.485c1.171,1.657,1.758,3.864,1.758,6.623v0.336
			c0,2.589-0.586,4.653-1.758,6.192c-1.172,1.539-2.786,2.309-4.842,2.309c-1.214,0-2.277-0.232-3.188-0.695
			c-0.911-0.463-1.654-1.121-2.229-1.973v7.35l2.605,0.208v1.422h-7.111v-1.422l2.605-0.208V38.729L140.505,38.521z M155.11,45.887
			c0-2.194-0.437-3.984-1.31-5.369c-0.874-1.385-2.152-2.077-3.835-2.077c-1.289,0-2.336,0.307-3.14,0.919
			c-0.805,0.613-1.409,1.409-1.814,2.389v8.309c0.436,0.948,1.068,1.694,1.893,2.237c0.825,0.543,1.856,0.815,3.092,0.815
			c1.672,0,2.942-0.628,3.811-1.885c0.868-1.257,1.302-2.924,1.302-5.001V45.887z"/>
	</g>
</g>
<g>
</g>
<g>
</g>
<g>
</g>
<g>
</g>
<g>
</g>
<g>
</g>
</svg>
